<?xml version="1.0" encoding="UTF-8" standalone="no"?>
<!-- Generator: Adobe Illustrator 17.1.0, SVG Export Plug-In . SVG Version: 6.00 Build 0)  -->

<svg
   xmlns:dc="http://purl.org/dc/elements/1.1/"
   xmlns:cc="http://creativecommons.org/ns#"
   xmlns:rdf="http://www.w3.org/1999/02/22-rdf-syntax-ns#"
   xmlns:svg="http://www.w3.org/2000/svg"
   xmlns="http://www.w3.org/2000/svg"
   xmlns:sodipodi="http://sodipodi.sourceforge.net/DTD/sodipodi-0.dtd"
   xmlns:inkscape="http://www.inkscape.org/namespaces/inkscape"
   version="1.1"
   id="Layer_1"
   x="0px"
   y="0px"
   viewBox="0 0 3274.2 579"
   enable-background="new 0 0 3274.2 579"
   xml:space="preserve"
   sodipodi:docname="Sunglass Hut.svg"
   width="3274.2"
   height="579"
   inkscape:version="0.92.2 5c3e80d, 2017-08-06"><metadata
     id="metadata9"><rdf:RDF><cc:Work
         rdf:about=""><dc:format>image/svg+xml</dc:format><dc:type
           rdf:resource="http://purl.org/dc/dcmitype/StillImage" /><dc:title></dc:title></cc:Work></rdf:RDF></metadata><defs
     id="defs7" /><sodipodi:namedview
     pagecolor="#ffffff"
     bordercolor="#666666"
     borderopacity="1"
     objecttolerance="10"
     gridtolerance="10"
     guidetolerance="10"
     inkscape:pageopacity="0"
     inkscape:pageshadow="2"
     inkscape:window-width="1680"
     inkscape:window-height="931"
     id="namedview5"
     showgrid="false"
     inkscape:zoom="0.098955472"
     inkscape:cx="1637.1"
     inkscape:cy="289.5"
     inkscape:window-x="0"
     inkscape:window-y="1"
     inkscape:window-maximized="1"
     inkscape:current-layer="Layer_1" /><path
     d="M 2774,411.9 V 246.1 c 0,-42.7 -13.5,-75.4 -53.1,-75.4 -39.2,0 -59.7,39.1 -59.7,71.3 v 169.9 h -44.7 V 32.5 h 44.8 v 0 154.4 0 c 10.9,-17.4 32,-33.2 68.5,-33.2 53.8,0 88.8,37.9 88.8,90.1 v 168.1 z m -1036.7,-0.2 h 44.1 V 32.5 h -44.1 z M 1329.9,154 c -32.4,0 -55.8,15 -68.7,34.8 v -25.6 0 H 1217 V 412 h 44.2 V 241 c 0,-37.1 26.6,-70.3 60.3,-70.3 36,0 53.6,28.8 53.6,70.1 V 412 h 44.1 V 244 c -0.1,-52.4 -38.5,-90 -89.3,-90 z m 1711.9,9.1 v 172.5 c 0,42.7 -19.2,68.5 -56.1,68.5 -38,0 -57.2,-25.8 -57.2,-68.5 V 163.1 h -44.7 l 0.4,153.5 c 0,60.8 35.4,104.8 100.5,104.8 65.9,0 101.8,-44 101.8,-104.8 v 0 -153.5 z m -1940.6,0 v 172.5 c 0,42.7 -19.2,68.5 -56.1,68.5 -38,0 -57.2,-25.8 -57.2,-68.5 V 163.1 h -44.7 l 0.4,153.5 c 0,60.8 35.4,104.8 100.5,104.8 65.9,0 101.8,-44 101.8,-104.8 v 0 -153.5 z m 922.3,94.8 v 153.7 h -43.7 v -25.5 c -10.2,15 -33,31.6 -60.9,31.6 -52.6,0 -78.7,-31.6 -78.7,-67.8 0,-53.5 35.7,-63.4 83.6,-77.6 40.3,-11.9 59,-18 59,-52.4 0,-27.9 -17.6,-47.9 -53.4,-47.9 -35.8,0 -54,15.8 -65.2,42.2 l -15.6,-6.3 v 0 c 14,-35.8 44.8,-52.6 82.1,-52.6 52.5,-0.1 92.8,40.8 92.8,102.6 z m -43.7,10.2 c -9.8,7.4 -21.5,12 -49.5,19.8 -34.9,9.8 -45.8,23.6 -45.8,60.7 0,26.8 7.9,51.8 37.2,52.2 33,0 58.1,-28.5 58.1,-55 z m -356,-22.3 c 0,-57.3 -17.6,-75 -52.1,-75 -34.4,0 -52,17.7 -52,75 v 17.6 c 0,54.5 17.4,69.3 51.8,69.3 34.5,0 52.4,-14.8 52.4,-69.3 v -17.6 z m 63.1,-84 v 16.8 0 h -45.2 c 17.9,17 27.5,42 27.5,72.5 0,60.2 -34.7,98.5 -97.8,98.5 -33.4,0.4 -61.1,-2.4 -61.1,21.9 0,17.8 32.6,15.9 67,17.4 50.6,2.3 102,7 102,67.6 0,47.3 -52.3,80.2 -106.2,80.2 -32.5,0 -61.1,-10.1 -78.5,-26.1 l 11.4,-12.4 c 15,13.2 38.6,21.8 67.2,21.8 39.3,0 73,-16.6 73,-46.7 0,-35.8 -22.4,-36.5 -70.1,-40.1 -42.5,-3.1 -84.5,-11.1 -84.5,-51.8 0,-21.1 8.6,-36.8 30.6,-44.2 -30.6,-16.1 -47.4,-44.2 -47.4,-86 0,-57.8 34.3,-97.3 96.9,-97.3 17.5,0 33.1,3.4 45.3,8 z M 3209.8,68.7 h -44.7 v 94.4 H 3137 v 17 h 28.1 v 0 l -0.3,143.9 c 0,64.5 30,95.6 79.9,95.6 12.3,0 21.9,-1.8 29.5,-4.2 v 0 l -2.6,-15.1 c -5.2,1.6 -10.8,2.6 -16.5,2.6 -33.6,0 -45.3,-23 -45.3,-67.7 V 180.1 h 58.5 v -17 h -58.5 V 68.7 Z M 579,289.5 C 579,129.6 449.4,0 289.5,0 129.6,0 0,129.6 0,289.5 0,449.4 129.6,579 289.5,579 449.4,579 579,449.4 579,289.5 Z M 289.5,0 v 0 m 0,579 v 0 M 0,289.5 v 0 m 879.7,-75.3 c 0,-24 -30.9,-57.4 -87.3,-57.4 -50.7,0 -83.9,34.7 -83.9,79 0,52.8 41.8,65.8 84.2,72 35.7,5.3 67.5,16 67.5,51.7 0,28 -28.5,45.5 -64.2,45.5 -25.9,0 -44,-8.7 -59.9,-24.5 L 723.4,393 c 19.1,19.1 44.9,29.1 72.6,29.1 50,0 94.5,-33.2 94.5,-80.4 0,-40.9 -14.6,-71.7 -97,-83.1 -34.2,-4.8 -63.4,-11.3 -62.3,-41.6 v 0 c 0.8,-23.2 26.4,-43.5 62.2,-43.5 19.2,0 42,6.3 51.3,15.8 l -1.5,0.7 v 0 c -9.5,4.3 -15.6,13.9 -15.6,24.2 0,13.9 11.8,25.7 25.7,25.7 14.4,0 26.4,-11.8 26.4,-25.7 z m 1364.2,0 c 0,-24 -30.9,-57.4 -87.3,-57.4 -50.7,0 -83.9,34.7 -83.9,79 0,52.8 41.8,65.8 84.2,72 35.7,5.3 67.5,16 67.5,51.7 0,28 -28.5,45.5 -64.2,45.5 -25.9,0 -44,-8.7 -59.9,-24.5 l -12.7,12.4 c 19.1,19.1 44.9,29.1 72.6,29.1 50,0 94.5,-33.2 94.5,-80.4 0,-40.9 -14.6,-71.7 -97,-83.1 -34.2,-4.8 -63.4,-11.3 -62.3,-41.6 v 0 c 0.8,-23.2 26.4,-43.5 62.2,-43.5 19.2,0 42,6.3 51.3,15.8 l -1.5,0.7 v 0 c -9.5,4.3 -15.6,13.9 -15.6,24.2 0,13.9 11.8,25.7 25.7,25.7 14.4,0.1 26.4,-11.7 26.4,-25.6 z m 221,0 c 0,-24 -30.9,-57.4 -87.3,-57.4 -50.7,0 -83.9,34.7 -83.9,79 0,52.8 41.8,65.8 84.2,72 35.7,5.3 67.5,16 67.5,51.7 0,28 -28.5,45.5 -64.2,45.5 -25.9,0 -44,-8.7 -59.9,-24.5 l -12.7,12.4 c 19.1,19.1 44.9,29.1 72.6,29.1 50,0 94.5,-33.2 94.5,-80.4 0,-40.9 -14.6,-71.7 -97,-83.1 -34.2,-4.8 -63.4,-11.3 -62.3,-41.6 v 0 c 0.8,-23.2 26.4,-43.5 62.2,-43.5 19.2,0 42,6.3 51.3,15.8 l -1.5,0.7 v 0 c -9.5,4.3 -15.6,13.9 -15.6,24.2 0,13.9 11.8,25.7 25.7,25.7 14.4,0.1 26.4,-11.7 26.4,-25.6 z"
     id="path2"
     inkscape:connector-curvature="0"
     style="fill:#231f20" /></svg>