<svg xmlns="http://www.w3.org/2000/svg" width="480pt" height="290pt" viewBox="0 0 480 290" version="1.1" xmlns:xlink="http://www.w3.org/1999/xlink">
  <g id="surface2" transform="matrix(1.8468100266074188,0,0,1.8468100266074188,-204.97616634754482,-98.22919281962834)">
    <path style="stroke:none;fill-rule:evenodd;fill:rgb(98.823529%,76.862745%,1.568627%);fill-opacity:1" d="M 205.699219 121.699219 C 205.398438 121.734375 205.234375 121.882812 205.199219 122.148438 C 205.265625 123.75 205.316406 125.351562 205.351562 126.949219 C 205.417969 127.183594 205.582031 127.316406 205.851562 127.351562 C 207.648438 127.285156 209.433594 127.25 211.199219 127.25 C 211.5 127.214844 211.648438 127.066406 211.648438 126.800781 C 211.648438 125.199219 211.648438 123.601562 211.648438 122 C 211.617188 121.765625 211.449219 121.632812 211.148438 121.601562 C 209.316406 121.632812 207.5 121.667969 205.699219 121.699219 M 185.300781 123.25 C 185 123.316406 184.867188 123.484375 184.898438 123.75 C 185.066406 125.316406 185.25 126.882812 185.449219 128.449219 C 185.484375 128.714844 185.648438 128.832031 185.949219 128.800781 C 187.714844 128.601562 189.484375 128.417969 191.25 128.25 C 191.515625 128.214844 191.648438 128.066406 191.648438 127.800781 C 191.515625 126.234375 191.382812 124.648438 191.25 123.050781 C 191.183594 122.785156 191 122.667969 190.699219 122.699219 C 188.898438 122.867188 187.101562 123.050781 185.300781 123.25 M 210.949219 103.449219 C 208.984375 103.484375 207.035156 103.515625 205.101562 103.550781 C 204.765625 103.617188 204.601562 103.765625 204.601562 104 C 204.632812 105.601562 204.683594 107.199219 204.75 108.800781 C 204.785156 109.066406 204.949219 109.199219 205.25 109.199219 C 207.183594 109.132812 209.101562 109.101562 211 109.101562 C 211.332031 109.066406 211.5 108.917969 211.5 108.648438 C 211.5 107.050781 211.5 105.449219 211.5 103.851562 C 211.464844 103.617188 211.285156 103.484375 210.949219 103.449219 M 211.050781 112.601562 C 209.148438 112.632812 207.265625 112.683594 205.398438 112.75 C 205.066406 112.75 204.898438 112.882812 204.898438 113.148438 C 204.964844 114.75 205.015625 116.351562 205.050781 117.949219 C 205.117188 118.214844 205.285156 118.351562 205.550781 118.351562 C 207.417969 118.285156 209.265625 118.25 211.101562 118.25 C 211.398438 118.214844 211.566406 118.066406 211.601562 117.800781 C 211.566406 116.199219 211.550781 114.601562 211.550781 113 C 211.515625 112.765625 211.351562 112.632812 211.050781 112.601562 M 210.648438 74.949219 C 208.484375 74.984375 206.316406 75.035156 204.148438 75.101562 C 203.816406 75.132812 203.632812 75.285156 203.601562 75.550781 C 203.667969 77.148438 203.714844 78.75 203.75 80.351562 C 203.816406 80.582031 204.015625 80.714844 204.351562 80.75 C 206.484375 80.648438 208.601562 80.601562 210.699219 80.601562 C 211.066406 80.566406 211.265625 80.417969 211.300781 80.148438 C 211.265625 78.582031 211.25 77 211.25 75.398438 C 211.214844 75.132812 211.015625 74.984375 210.648438 74.949219 M 210.851562 93.949219 C 208.816406 93.984375 206.800781 94.035156 204.800781 94.101562 C 204.464844 94.132812 204.285156 94.285156 204.25 94.550781 C 204.316406 96.117188 204.382812 97.699219 204.449219 99.300781 C 204.484375 99.566406 204.648438 99.699219 204.949219 99.699219 C 206.949219 99.632812 208.933594 99.601562 210.898438 99.601562 C 211.234375 99.566406 211.417969 99.417969 211.449219 99.148438 C 211.417969 97.550781 211.398438 95.949219 211.398438 94.351562 C 211.367188 94.117188 211.183594 93.984375 210.851562 93.949219 M 210.75 84.449219 C 208.648438 84.484375 206.566406 84.535156 204.5 84.601562 C 204.132812 84.632812 203.949219 84.785156 203.949219 85.050781 C 203.984375 86.617188 204.035156 88.199219 204.101562 89.800781 C 204.132812 90.066406 204.316406 90.199219 204.648438 90.199219 C 206.714844 90.167969 208.765625 90.132812 210.800781 90.101562 C 211.132812 90.066406 211.316406 89.917969 211.351562 89.648438 C 211.351562 88.050781 211.332031 86.464844 211.300781 84.898438 C 211.265625 84.632812 211.082031 84.484375 210.75 84.449219 M 189.199219 100.75 C 189.066406 99.183594 188.917969 97.601562 188.75 96 C 188.714844 95.765625 188.535156 95.648438 188.199219 95.648438 C 186.199219 95.851562 184.199219 96.066406 182.199219 96.300781 C 181.867188 96.332031 181.699219 96.484375 181.699219 96.75 C 181.867188 98.351562 182.050781 99.933594 182.25 101.5 C 182.316406 101.765625 182.515625 101.882812 182.851562 101.851562 C 184.785156 101.617188 186.734375 101.417969 188.699219 101.25 C 189.035156 101.183594 189.199219 101.015625 189.199219 100.75 M 189.898438 113.699219 C 188 113.898438 186.117188 114.101562 184.25 114.300781 C 183.949219 114.367188 183.800781 114.535156 183.800781 114.800781 C 184 116.367188 184.199219 117.933594 184.398438 119.5 C 184.433594 119.765625 184.601562 119.898438 184.898438 119.898438 C 186.734375 119.667969 188.566406 119.464844 190.398438 119.300781 C 190.699219 119.265625 190.851562 119.117188 190.851562 118.851562 C 190.714844 117.25 190.566406 115.667969 190.398438 114.101562 C 190.367188 113.832031 190.199219 113.699219 189.898438 113.699219 M 173.601562 115 C 173.601562 115 173.601562 115 173.601562 115 C 173.964844 117.367188 174.382812 120.015625 174.851562 122.949219 C 175.316406 125.882812 175.785156 128.832031 176.25 131.800781 C 176.714844 134.765625 177.148438 137.515625 177.550781 140.050781 C 179.382812 140.183594 181.332031 140.265625 183.398438 140.300781 C 181.367188 124.964844 179.332031 109.667969 177.300781 94.398438 C 177.300781 94.132812 177.464844 93.964844 177.800781 93.898438 C 183.535156 93.132812 189.265625 92.566406 195 92.199219 C 195.300781 92.167969 195.550781 92.066406 195.75 91.898438 C 195.949219 91.734375 196.050781 91.515625 196.050781 91.25 C 195.648438 85.183594 195.25 79.117188 194.851562 73.050781 C 194.882812 72.785156 195.066406 72.632812 195.398438 72.601562 C 201.867188 72.199219 208.316406 72.015625 214.75 72.050781 C 215.117188 72.050781 215.316406 72.183594 215.351562 72.449219 C 215.214844 94.117188 215.082031 115.785156 214.949219 137.449219 C 216.882812 137.148438 218.816406 136.832031 220.75 136.5 C 221.449219 113.535156 222.148438 90.582031 222.851562 67.648438 C 222.851562 67.417969 222.734375 67.214844 222.5 67.050781 C 222.300781 66.882812 222.035156 66.785156 221.699219 66.75 C 210.5 66.449219 199.332031 66.785156 188.199219 67.75 C 187.867188 67.785156 187.582031 67.882812 187.351562 68.050781 C 187.148438 68.214844 187.050781 68.433594 187.050781 68.699219 C 187.617188 74.734375 188.167969 80.785156 188.699219 86.851562 C 188.667969 87.117188 188.5 87.265625 188.199219 87.300781 C 182.332031 87.867188 176.484375 88.582031 170.648438 89.449219 C 170.351562 89.515625 170.117188 89.648438 169.949219 89.851562 C 169.75 90.015625 169.667969 90.234375 169.699219 90.5 C 170.632812 96.398438 171.566406 102.316406 172.5 108.25 C 172.867188 110.515625 173.234375 112.765625 173.601562 115 M 183.300781 110.449219 C 183.132812 108.851562 182.949219 107.265625 182.75 105.699219 C 182.75 105.433594 182.898438 105.265625 183.199219 105.199219 C 185.167969 105 187.117188 104.800781 189.050781 104.601562 C 189.351562 104.601562 189.535156 104.734375 189.601562 105 C 189.734375 106.566406 189.867188 108.132812 190 109.699219 C 190 109.964844 189.851562 110.132812 189.550781 110.199219 C 187.648438 110.367188 185.75 110.566406 183.851562 110.800781 C 183.550781 110.800781 183.367188 110.683594 183.300781 110.449219 "/>
    <path style="stroke:none;fill-rule:evenodd;fill:rgb(67.843137%,20.392157%,10.196078%);fill-opacity:1" d="M 228.050781 135.101562 C 229.382812 117.964844 230.699219 100.816406 232 83.648438 C 232.035156 83.417969 232.234375 83.300781 232.601562 83.300781 C 237.832031 83.699219 243.066406 84.25 248.300781 84.949219 C 248.632812 85.015625 248.800781 85.183594 248.800781 85.449219 C 246.699219 100.917969 244.601562 116.382812 242.5 131.851562 C 244.367188 131.382812 246.199219 130.917969 248 130.449219 C 248.964844 124.316406 249.933594 118.199219 250.898438 112.101562 C 250.898438 112.066406 250.898438 112.066406 250.898438 112.101562 C 251.132812 110.601562 251.367188 109.148438 251.601562 107.75 C 252.964844 99.214844 254.316406 90.667969 255.648438 82.101562 C 255.683594 81.867188 255.601562 81.667969 255.398438 81.5 C 255.234375 81.300781 254.984375 81.167969 254.648438 81.101562 C 245.550781 79.699219 236.398438 78.734375 227.199219 78.199219 C 226.867188 78.199219 226.582031 78.265625 226.351562 78.398438 C 226.148438 78.535156 226.035156 78.734375 226 79 C 224.964844 98.035156 223.933594 117.066406 222.898438 136.101562 C 224.632812 135.765625 226.351562 135.433594 228.050781 135.101562 M 235.699219 97.351562 C 235.535156 98.816406 235.382812 100.285156 235.25 101.75 C 235.285156 102.015625 235.449219 102.167969 235.75 102.199219 C 237.582031 102.398438 239.417969 102.601562 241.25 102.800781 C 241.550781 102.800781 241.734375 102.683594 241.800781 102.449219 C 241.964844 100.984375 242.148438 99.515625 242.351562 98.050781 C 242.351562 97.785156 242.183594 97.617188 241.851562 97.550781 C 239.984375 97.316406 238.117188 97.117188 236.25 96.949219 C 235.917969 96.949219 235.734375 97.082031 235.699219 97.351562 M 242.25 93.949219 C 242.582031 93.949219 242.785156 93.832031 242.851562 93.601562 C 243.015625 92.132812 243.199219 90.667969 243.398438 89.199219 C 243.367188 88.933594 243.199219 88.765625 242.898438 88.699219 C 240.964844 88.464844 239.035156 88.265625 237.101562 88.101562 C 236.765625 88.066406 236.566406 88.183594 236.5 88.449219 C 236.367188 89.917969 236.234375 91.382812 236.101562 92.851562 C 236.101562 93.117188 236.265625 93.285156 236.601562 93.351562 C 238.5 93.515625 240.382812 93.714844 242.25 93.949219 M 234.851562 106.199219 C 234.714844 107.667969 234.582031 109.132812 234.449219 110.601562 C 234.449219 110.867188 234.601562 111.035156 234.898438 111.101562 C 236.667969 111.265625 238.433594 111.449219 240.199219 111.648438 C 240.5 111.648438 240.683594 111.535156 240.75 111.300781 C 240.917969 109.832031 241.101562 108.367188 241.300781 106.898438 C 241.300781 106.632812 241.132812 106.464844 240.800781 106.398438 C 239 106.199219 237.199219 106 235.398438 105.800781 C 235.101562 105.800781 234.917969 105.933594 234.851562 106.199219 M 233.148438 124.101562 C 233.015625 125.566406 232.882812 127.035156 232.75 128.5 C 232.75 128.765625 232.898438 128.933594 233.199219 129 C 234.832031 129.132812 236.464844 129.300781 238.101562 129.5 C 238.398438 129.535156 238.582031 129.417969 238.648438 129.148438 C 238.816406 127.683594 238.984375 126.214844 239.148438 124.75 C 239.148438 124.484375 239.015625 124.316406 238.75 124.25 C 237.050781 124.050781 235.367188 123.867188 233.699219 123.699219 C 233.398438 123.699219 233.214844 123.832031 233.148438 124.101562 M 234.550781 114.75 C 236.285156 114.949219 238.015625 115.132812 239.75 115.300781 C 240.082031 115.367188 240.234375 115.535156 240.199219 115.800781 C 240.035156 117.265625 239.867188 118.734375 239.699219 120.199219 C 239.632812 120.464844 239.449219 120.601562 239.148438 120.601562 C 237.449219 120.367188 235.75 120.183594 234.050781 120.050781 C 233.75 119.984375 233.601562 119.816406 233.601562 119.550781 C 233.734375 118.082031 233.867188 116.617188 234 115.148438 C 234.066406 114.882812 234.25 114.75 234.550781 114.75 "/>
    <path style="stroke:none;fill-rule:evenodd;fill:rgb(93.725490%,47.843137%,16.862745%);fill-opacity:1" d="M 321.300781 109.949219 C 321.300781 109.949219 321.300781 109.949219 321.300781 109.949219 C 321.300781 109.949219 321.300781 109.933594 321.300781 109.898438 C 321.265625 109.898438 321.234375 109.851562 321.199219 109.75 L 321.050781 109.648438 L 321.050781 109.699219 C 320.617188 109.464844 319.917969 109.316406 318.949219 109.25 C 317.984375 109.183594 317.015625 109.167969 316.050781 109.199219 C 315.050781 109.234375 314.316406 109.25 313.851562 109.25 C 313.617188 109.183594 313.332031 109.101562 313 109 C 312.667969 108.933594 312.550781 108.917969 312.648438 108.949219 C 312.785156 109.015625 312.898438 109.082031 313 109.148438 C 312.898438 109.117188 312.800781 109.101562 312.699219 109.101562 C 311.933594 109 310.851562 109.117188 309.449219 109.449219 C 308.082031 109.785156 306.648438 110.25 305.148438 110.851562 C 304.75 111.015625 303.882812 111.367188 302.550781 111.898438 C 301.214844 112.433594 299.566406 113.101562 297.601562 113.898438 C 295.632812 114.667969 293.464844 115.515625 291.101562 116.449219 C 290.300781 116.183594 289.316406 115.851562 288.148438 115.449219 C 288.183594 115.417969 288.234375 115.382812 288.300781 115.351562 C 288.632812 115.015625 288.832031 114.667969 288.898438 114.300781 C 288.964844 113.898438 288.964844 113.550781 288.898438 113.25 C 288.867188 112.949219 288.667969 112.648438 288.300781 112.351562 C 287.933594 112.015625 287.433594 111.851562 286.800781 111.851562 C 286.265625 111.882812 285.515625 112.035156 284.550781 112.300781 C 283.582031 112.601562 282.667969 112.917969 281.800781 113.25 C 279.601562 112.484375 277.484375 111.75 275.449219 111.050781 C 273.417969 110.316406 271.714844 109.714844 270.351562 109.25 C 269.015625 108.785156 268.285156 108.535156 268.148438 108.5 C 267.949219 108.464844 267.683594 108.449219 267.351562 108.449219 C 267.050781 108.449219 266.785156 108.484375 266.550781 108.550781 L 264.148438 109.648438 L 264.199219 109.800781 C 264.234375 109.832031 264.800781 110.132812 265.898438 110.699219 C 267 111.265625 268.367188 111.984375 270 112.851562 C 271.632812 113.714844 273.285156 114.601562 274.949219 115.5 C 276.648438 116.367188 278.117188 117.132812 279.351562 117.800781 C 280.582031 118.433594 281.351562 118.816406 281.648438 118.949219 C 282.050781 119.183594 282.351562 119.484375 282.550781 119.851562 C 279.082031 121.25 275.832031 122.535156 272.800781 123.699219 C 270.832031 122.867188 268.964844 121.984375 267.199219 121.050781 C 265.433594 120.117188 263.535156 119.234375 261.5 118.398438 L 257.601562 119.898438 L 260.898438 124 L 258 125.5 L 263.25 126.898438 L 263.75 127.949219 C 258.285156 129.984375 252.449219 131.882812 246.25 133.648438 C 240.050781 135.449219 233.734375 137.050781 227.300781 138.449219 C 220.898438 139.882812 214.632812 141.050781 208.5 141.949219 C 202.398438 142.851562 196.714844 143.417969 191.449219 143.648438 C 186.183594 143.882812 181.582031 143.734375 177.648438 143.199219 C 173.75 142.632812 170.785156 141.601562 168.75 140.101562 C 166.714844 138.601562 165.882812 136.566406 166.25 134 C 166.648438 131.433594 168.5 128.25 171.800781 124.449219 L 171.648438 123.550781 C 166.148438 127.949219 162.417969 131.714844 160.449219 134.851562 C 158.484375 138.015625 158.015625 140.601562 159.050781 142.601562 C 160.082031 144.601562 162.351562 146.066406 165.851562 147 C 169.316406 147.964844 173.75 148.433594 179.148438 148.398438 C 184.550781 148.398438 190.632812 147.984375 197.398438 147.148438 C 204.167969 146.285156 211.351562 145.035156 218.949219 143.398438 C 226.515625 141.800781 234.234375 139.867188 242.101562 137.601562 C 250 135.300781 257.75 132.75 265.351562 129.949219 L 266.699219 137.351562 L 271 136.050781 L 271.648438 129.050781 C 273.484375 128.816406 275.167969 128.582031 276.699219 128.351562 C 278 128.148438 279.367188 127.917969 280.800781 127.648438 C 282.265625 127.382812 283.632812 127.117188 284.898438 126.851562 C 286.199219 126.617188 287.25 126.417969 288.050781 126.25 C 288.882812 126.050781 289.300781 125.949219 289.300781 125.949219 C 289.332031 125.949219 289.398438 125.933594 289.5 125.898438 C 289.667969 126.167969 289.816406 126.449219 289.949219 126.75 C 290.082031 127.050781 290.234375 127.316406 290.398438 127.550781 C 290.535156 127.75 290.898438 128.433594 291.5 129.601562 C 292.066406 130.765625 292.75 132.167969 293.550781 133.800781 C 294.351562 135.398438 295.148438 137.015625 295.949219 138.648438 C 296.714844 140.25 297.367188 141.617188 297.898438 142.75 C 298.433594 143.851562 298.714844 144.464844 298.75 144.601562 C 298.851562 144.867188 299.183594 144.898438 299.75 144.699219 C 300.316406 144.464844 300.882812 144.199219 301.449219 143.898438 C 301.984375 143.566406 302.316406 143.367188 302.449219 143.300781 C 303.015625 142.933594 303.300781 142.5 303.300781 142 C 303.332031 141.5 303.332031 141.234375 303.300781 141.199219 L 301.800781 132.101562 C 302.433594 131.867188 302.984375 131.632812 303.449219 131.398438 C 303.949219 131.132812 304.316406 130.917969 304.550781 130.75 C 304.882812 130.417969 305.101562 130.035156 305.199219 129.601562 C 305.265625 129.167969 305.265625 128.800781 305.199219 128.5 C 305.167969 128.167969 304.933594 127.816406 304.5 127.449219 C 304.101562 127.117188 303.566406 126.949219 302.898438 126.949219 C 302.433594 126.949219 301.816406 127.066406 301.050781 127.300781 L 300.148438 121.75 C 301.75 121.117188 303.300781 120.515625 304.800781 119.949219 C 306.300781 119.351562 307.632812 118.816406 308.800781 118.351562 C 309.964844 117.882812 310.851562 117.535156 311.449219 117.300781 C 315.050781 115.765625 317.617188 114.332031 319.148438 113 C 320.714844 111.667969 321.449219 110.699219 321.351562 110.101562 C 321.351562 110.035156 321.332031 109.984375 321.300781 109.949219 M 217.25 158.398438 C 219.550781 158.601562 222.433594 158.515625 225.898438 158.148438 C 229.398438 157.75 233.234375 157.132812 237.398438 156.300781 C 241.566406 155.433594 245.800781 154.417969 250.101562 153.25 C 254.398438 152.050781 258.515625 150.75 262.449219 149.351562 C 266.382812 147.949219 269.867188 146.515625 272.898438 145.050781 C 275.933594 143.582031 278.25 142.148438 279.851562 140.75 C 281.417969 139.316406 282.015625 137.984375 281.648438 136.75 C 281.285156 135.515625 279.667969 134.433594 276.800781 133.5 L 278.949219 132.351562 C 283.214844 133.417969 285.949219 134.667969 287.148438 136.101562 C 288.382812 137.566406 288.367188 139.117188 287.101562 140.75 C 285.832031 142.382812 283.667969 144.035156 280.601562 145.699219 C 277.535156 147.367188 273.851562 148.984375 269.550781 150.550781 C 265.25 152.082031 260.667969 153.464844 255.800781 154.699219 C 250.933594 155.964844 246.082031 156.984375 241.25 157.75 C 236.449219 158.515625 231.964844 158.984375 227.800781 159.148438 C 223.632812 159.316406 220.117188 159.066406 217.25 158.398438 "/>
  </g>
  <g id="surface4">
    <text style="fill:rgb(94,113,60)" font-family="Kabel Bk BT" font-size="70" transform="matrix(0.9403124372852896,0,0,0.9403124372852896,105.22422337416518,269.12769088753106)" xml:space="preserve"><![CDATA[CKC Travel]]></text>
  </g>
</svg>